<svg width="45" height="50" viewBox="0 0 45 50" fill="none" xmlns="http://www.w3.org/2000/svg">
<path d="M5.57472 27.7823C5.82735 27.5166 6.03839 27.2181 6.214 26.8836C6.38961 26.5491 6.52825 26.1787 6.63916 25.777C6.86406 24.9752 6.98421 24.0655 7.14596 23.1152C7.3077 22.1649 7.5172 21.1599 7.91155 20.1846C8.10719 19.6985 8.3475 19.2233 8.62939 18.7748C8.91129 18.3262 9.2394 17.9089 9.5937 17.5244L9.61835 17.4978C9.86636 17.229 10.2391 17.1477 10.5626 17.2602C10.8384 17.3571 11.2204 17.3884 11.604 17.3571C11.9891 17.3259 12.385 17.2368 12.75 17.1008C13.1136 16.9648 13.4556 16.7741 13.6897 16.5569C13.8068 16.4506 13.893 16.3396 13.9408 16.2443C13.9901 16.1474 14.004 16.0755 14.0024 15.9895L14.2258 16.4881L0.126217 0.767511L0.813249 0.197019L8.22888 11.2849L8.2335 11.2912C8.29512 11.3834 8.27201 11.51 8.17959 11.5725C8.11027 11.6209 8.02246 11.6178 7.95623 11.5725L5.02941 9.58749L5.21888 9.39993L8.90975 15.802L4.98782 9.54372C4.94777 9.47964 4.96625 9.39524 5.02941 9.3546C5.07408 9.3249 5.12954 9.32647 5.17267 9.35304L5.17729 9.35616L8.17343 11.2318L7.90077 11.5209L0.0861661 0.719059C-0.0586344 0.517432 -0.0170427 0.23453 0.181673 0.087609C0.361903 -0.0468085 0.609913 -0.0233636 0.762415 0.136062L0.774739 0.148566L15.4396 15.3299C15.569 15.4643 15.643 15.6316 15.6615 15.8051L15.6645 15.8301C15.6846 16.027 15.6784 16.2302 15.6461 16.4256C15.6137 16.6225 15.5521 16.8085 15.4766 16.9789C15.3226 17.3212 15.1084 17.5947 14.882 17.8198C14.6556 18.0464 14.4137 18.2277 14.1657 18.3825C13.9177 18.5372 13.6635 18.6654 13.4047 18.7748C12.8871 18.9905 12.3511 19.1343 11.7904 19.2015C11.51 19.2343 11.2235 19.2484 10.9277 19.2343C10.632 19.2187 10.3254 19.1765 10.0081 19.0827L10.9755 18.8201C10.4271 19.4359 10.0081 20.1346 9.71848 20.9114C9.42426 21.6866 9.25943 22.5369 9.12695 23.4403C8.9914 24.3437 8.89281 25.3096 8.63556 26.3256C8.50616 26.832 8.33055 27.3509 8.08254 27.8542C7.83607 28.3559 7.51258 28.8389 7.1321 29.2578L7.12747 29.2625C6.7285 29.7001 6.05533 29.7282 5.62401 29.3234C5.19269 28.9186 5.16497 28.2356 5.56394 27.7979C5.56394 27.7964 5.57164 27.787 5.57472 27.7823Z" fill="black"/>
<path fill-rule="evenodd" clip-rule="evenodd" d="M4.30528 28.9736C4.68402 28.7076 5.05452 28.4475 5.36722 28.0695C5.36722 28.0695 7.3905 25.9907 8.01747 27.3724C6.84118 30.922 9.40371 33.2383 11.3134 34.6513C12.4595 35.4984 12.425 36.9551 12.0842 37.5537C11.3177 38.8979 9.42097 40.414 8.10519 41.1127C6.78941 41.8113 4.11184 42.968 4.67698 40.8798C4.8819 40.1228 4.36026 39.2841 3.72893 38.269C2.89383 36.9263 2.10406 35.1557 2.07562 33.0961C2.04718 31.0365 3.34814 29.6456 4.30528 28.9736ZM4.08275 33.2946C3.97347 33.1539 4.04393 32.9695 4.15465 32.8554C4.1791 32.8288 4.20642 32.8069 4.23518 32.7897C4.40918 32.6819 4.61769 32.6459 4.81326 32.6834C5.05485 32.7288 5.27486 32.8835 5.42873 33.0914C5.6056 33.3321 5.71058 33.6478 5.6847 33.9557C5.64443 34.4512 5.29643 34.9623 4.81326 34.9998C4.6105 35.0154 4.39768 34.9295 4.27401 34.7528C4.18917 34.6325 4.15465 34.4699 4.18054 34.3215C4.20189 34.1961 4.27239 34.1035 4.34378 34.0098C4.36854 33.9773 4.39341 33.9446 4.41637 33.9104C4.48252 33.8119 4.52422 33.6744 4.46814 33.5681C4.42656 33.4894 4.34788 33.4538 4.2683 33.4177C4.19925 33.3864 4.12952 33.3548 4.08275 33.2946Z" fill="black"/>
<path d="M13.5979 38.5664C13.5517 38.5977 13.504 38.6289 13.4531 38.6618C13.5009 38.6305 13.5502 38.5977 13.5979 38.5664Z" fill="black"/>
<path d="M13.3174 38.7578C13.3605 38.7281 13.4067 38.6969 13.456 38.6641C13.4098 38.6953 13.3636 38.7266 13.3174 38.7578Z" fill="black"/>
<path d="M40.9766 13.0302C40.5981 12.4659 40.1857 11.9329 39.7217 11.4781C39.5047 11.2655 39.2781 11.067 39.0434 10.881C38.9267 10.7888 38.8074 10.6982 38.6866 10.6122C38.4709 10.4575 38.2742 10.3074 38.0083 10.3527C37.8035 10.3887 37.6162 10.5262 37.4996 10.7232C37.387 10.9139 37.3476 11.1483 37.3856 11.3749C37.4195 11.5781 37.4426 11.7844 37.4535 11.9892C37.4779 12.4065 37.4507 12.8145 37.4005 13.2052C37.349 13.596 37.2717 13.982 37.1523 14.3524C37.0343 14.7198 36.8728 15.0714 36.6544 15.3559C37.0505 14.6729 37.1265 13.7398 37.1265 13.088C37.1265 11.9064 36.8769 10.2949 34.9736 8.88666H34.9776C34.2695 8.36618 33.5369 7.88478 32.7812 7.44714C33.8041 7.80976 34.8121 8.25208 35.797 8.76943C36.2963 9.03202 36.9366 8.56937 36.8375 7.85977C36.8199 7.73161 36.8077 7.60344 36.7996 7.47215C36.7765 7.05639 36.805 6.65314 36.8552 6.26552C36.9081 5.87946 36.9854 5.49496 37.1034 5.13078C37.2228 4.76661 37.3829 4.41962 37.6013 4.13672C37.2052 4.81975 37.1292 5.75442 37.1292 6.40462C37.1292 7.394 37.3042 8.62876 38.4763 9.8182C38.4953 9.83696 38.5143 9.85571 38.532 9.87447C38.692 10.0355 38.8616 10.1839 39.0258 10.3418C39.1886 10.4997 39.3473 10.6622 39.5006 10.831C39.6335 10.9779 39.7611 11.1296 39.8845 11.2859C40.0948 11.5531 40.2915 11.836 40.4719 12.1299C40.6537 12.4206 40.8192 12.7222 40.9766 13.0302Z" fill="black"/>
<path d="M33.1037 26.8398C30.8362 34.1609 39.3255 36.2788 35.8765 45.0503C41.0323 43.9718 43.4154 39.6595 42.6452 35.6661C41.6685 30.6098 36.2031 30.2691 33.1037 26.8398Z" fill="black"/>
<path d="M31.6356 30.8133C31.537 31.4542 31.3568 32.0778 31.0703 32.6592C30.4649 33.8846 29.4282 34.6989 28.2035 35.2288C27.7121 35.4414 27.2038 35.6102 26.6893 35.754C25.8467 35.99 25.0087 36.1713 24.1799 36.3776C23.3497 36.5824 22.5271 36.8106 21.7168 37.0997C22.4747 36.6918 23.2634 36.337 24.0613 36.0056C24.8562 35.6743 25.6603 35.3648 26.429 35.0162C27.1961 34.6693 27.9278 34.2738 28.5224 33.7674C29.499 32.9375 30.0921 31.7386 30.5265 30.5461C30.7114 30.0381 30.8515 29.502 30.944 28.9549C31.0349 28.4079 31.0795 27.8499 31.0472 27.2904C31.0148 26.7339 30.9085 26.1697 30.6313 25.6602C31.0133 26.0931 31.2613 26.6511 31.4261 27.2216C31.5909 27.7968 31.6788 28.3938 31.7126 28.9956C31.7465 29.6005 31.7265 30.2132 31.6356 30.8133Z" fill="black"/>
<path d="M26.773 17.2891C25.4282 27.6251 42.9121 25.5604 43.7793 33.9162C46.6753 29.1897 44.1644 25.5104 38.9362 22.4172C33.8435 19.4038 29.4903 20.0509 26.773 17.2891Z" fill="black"/>
</svg>
